<svg width="80" height="80" viewBox="0 0 80 80" fill="none" xmlns="http://www.w3.org/2000/svg">
<circle cx="40" cy="40" r="40" fill="#818181"/>
<path d="M57.0982 59.2942C57.0982 56.2294 57.0982 54.697 56.7199 53.4501C55.8683 50.6426 53.6713 48.4456 50.8638 47.594C49.6169 47.2157 48.0845 47.2157 45.0198 47.2157H34.0394C30.9746 47.2157 29.4422 47.2157 28.1953 47.594C25.3878 48.4456 23.1908 50.6426 22.3392 53.4501C21.9609 54.697 21.9609 56.2294 21.9609 59.2942M49.4119 29.6471C49.4119 35.105 44.9874 39.5295 39.5296 39.5295C34.0717 39.5295 29.6472 35.105 29.6472 29.6471C29.6472 24.1893 34.0717 19.7648 39.5296 19.7648C44.9874 19.7648 49.4119 24.1893 49.4119 29.6471Z" stroke="#F8F0F0" stroke-width="2" stroke-linecap="round" stroke-linejoin="round"/>
</svg>
